<mxfile host="app.diagrams.net" modified="2023-10-10T14:42:11.995Z" agent="Mozilla/5.0 (Windows NT 10.0; Win64; x64) AppleWebKit/537.36 (KHTML, like Gecko) Chrome/109.0.0.0 Safari/537.36" version="22.0.4" etag="MALApEdUOVBxSfkKJstF" type="github">
  <diagram name="Page-1" id="f7slz5XnafnkECcD18YV">
    <mxGraphModel>
      <root>
        <mxCell id="0" />
        <mxCell id="1" parent="0" />
      </root>
    </mxGraphModel>
  </diagram>
</mxfile>
